<?xml version="1.0" encoding="utf-8"?>
<!-- Generator: Adobe Illustrator 17.0.0, SVG Export Plug-In . SVG Version: 6.00 Build 0)  -->
<!DOCTYPE svg PUBLIC "-//W3C//DTD SVG 1.1//EN" "http://www.w3.org/Graphics/SVG/1.1/DTD/svg11.dtd">
<svg version="1.1" id="Layer_1" xmlns:ev="http://www.w3.org/2001/xml-events"
	 xmlns="http://www.w3.org/2000/svg" xmlns:xlink="http://www.w3.org/1999/xlink" x="0px" y="0px" width="612px" height="792px"
	 viewBox="0 0 612 792" enable-background="new 0 0 612 792" xml:space="preserve">
<g id="i">
	<path fill="#5F9CFF" d="M50,0h130c27.614,0,50,22.386,50,50v130c0,27.614-22.386,50-50,50H50c-27.614,0-50-22.386-50-50V50
		C0,22.386,22.386,0,50,0z"/>
</g>
<path opacity="0.6" fill="#FFFFFF" d="M162.768,45.009H67.395c-14.184,0-25.759,11.575-25.759,25.596l0,0
	c0,7.336,3.098,14.021,7.988,18.585v99.285c0,1.793,1.467,3.261,3.261,3.261h124.229c1.793,0,3.261-1.467,3.261-3.261V89.353
	c4.891-4.728,7.988-11.249,7.988-18.585l0,0C188.363,56.584,176.951,45.009,162.768,45.009z M173.528,82.343
	c-1.956,1.793-2.935,4.402-2.935,7.173v89.177c0,1.793-1.467,3.261-3.261,3.261H62.83c-1.793,0-3.261-1.467-3.261-3.261v-89.34
	c0-2.772-1.141-5.38-3.261-7.173c-3.424-3.261-5.054-7.662-4.891-12.39c0.652-8.641,7.988-14.999,16.466-14.999
	c24.291,0,94.883,0,94.883,0c8.804,0,15.977,7.173,15.977,15.977C178.582,75.169,176.788,79.245,173.528,82.343z"/>
<g opacity="0.6">
	<path fill="#FFFFFF" d="M135.389,130.264c5.433-5.432,11.041-2.266,18.347-9.571c3.77-3.771,5.353-7.025,15.259-18.106
		c0.222-0.248-0.616-1.429-0.884-1.258c-0.377,0.24-16.547,17.277-17.048,17.618c-0.367,0.25-1.423-0.749-1.142-1.186
		c0.251-0.391,15.883-17.242,16.381-17.854c0.416-0.511-0.743-1.398-1.055-1.423c0,0-17.221,17.17-17.43,17.322
		c-0.348,0.254-1.477-0.854-1.233-1.233c0.14-0.217,17.322-17.43,17.322-17.43c-0.025-0.312-0.912-1.471-1.424-1.055
		c-0.613,0.499-17.463,16.13-17.854,16.381c-0.438,0.281-1.436-0.775-1.186-1.142c0.34-0.501,17.377-16.671,17.618-17.048
		c0.171-0.268-1.01-1.105-1.258-0.884c-11.082,9.906-14.336,11.489-18.107,15.259c-7.305,7.306-4.139,12.913-9.571,18.347
		c-4.604,4.605-18.429,18.501-19.172,19.172c-6.884,6.216-15.817,11.842-21.905,17.93c-5.151,5.151-1.657,8.646-1.657,8.646l0.001,0
		c0,0,0.047,0.047,0.13,0.12c0.073,0.083,0.12,0.13,0.12,0.13l0,0.001c0,0,3.377,3.376,8.528-1.775
		c6.088-6.088,11.832-14.903,18.048-21.787C116.888,148.694,130.784,134.869,135.389,130.264z"/>
	<path fill="#FFFFFF" d="M97.877,126.963c-5.432-5.433-2.266-11.041-9.571-18.347c-3.771-3.77-7.025-5.353-18.106-15.259
		c-0.248-0.222-1.429,0.616-1.258,0.884c0.24,0.377,17.277,16.547,17.618,17.048c0.25,0.367-0.749,1.423-1.186,1.142
		c-0.391-0.251-17.242-15.883-17.854-16.381c-0.511-0.416-1.398,0.743-1.423,1.055c0,0,17.17,17.221,17.322,17.43
		c0.254,0.348-0.854,1.477-1.233,1.233c-0.217-0.14-17.43-17.322-17.43-17.322c-0.312,0.025-1.471,0.912-1.055,1.424
		c0.499,0.613,16.13,17.463,16.381,17.854c0.281,0.438-0.775,1.436-1.142,1.186c-0.501-0.34-16.671-17.377-17.048-17.618
		c-0.268-0.171-1.105,1.01-0.884,1.258c9.906,11.082,11.489,14.336,15.259,18.107c7.306,7.305,12.913,4.139,18.347,9.571
		c4.605,4.604,18.501,18.429,19.172,19.172c6.216,6.884,11.842,15.817,17.93,21.905c5.151,5.151,8.646,1.657,8.646,1.657l0-0.001
		c0,0,0.047-0.047,0.12-0.13c0.083-0.073,0.13-0.12,0.13-0.12l0.001,0c0,0,3.376-3.377-1.775-8.528
		c-6.088-6.088-14.903-11.832-21.787-18.048C116.306,145.463,102.481,131.568,97.877,126.963z"/>
</g>
<path opacity="0.6" fill="#FFFFFF" d="M100.181,64.141v3.139v33.977H92.95v6.272h7.231v9.512v3.138h3.139h16.588
	c0,0,3.762,0.042,7.62-1.887c3.859-1.929,7.957-6.423,7.957-13.689c0-6.871-2.997-11.368-6.365-13.742
	c2.384-2.317,4.292-6.015,4.292-11.143c0-7.092-3.328-11.544-6.71-13.574c-3.383-2.03-6.794-2.002-6.794-2.002h-16.588H100.181z
	 M106.453,70.413h13.455c0,0,1.766,0.029,3.567,1.11c1.801,1.08,3.664,2.846,3.664,8.195c0,5.042-1.773,6.547-3.554,7.519
	c-1.646,0.899-3.253,0.952-3.496,0.955c-0.138,0.004-0.371,0.004-0.371,0.004h-13.265V70.413L106.453,70.413z M120.094,94.459
	c0.003,0,0.006,0,0.01,0c0.028-0.001,2.357-0.084,4.614,1.052c2.271,1.143,4.495,3.012,4.495,9.092c0,5.176-2.124,6.899-4.486,8.08
	c-2.362,1.181-4.818,1.224-4.818,1.224h-13.455v-6.378h11.377v-6.273h-11.377v-6.789h13.455v-0.004
	C119.969,94.462,120.033,94.459,120.094,94.459L120.094,94.459z"/>
</svg>
